<?xml version="1.0" encoding="UTF-8"?>
<svg width="12px" height="15px" viewBox="0 0 12 15" version="1.1" xmlns="http://www.w3.org/2000/svg" xmlns:xlink="http://www.w3.org/1999/xlink">
    <!-- Generator: Sketch 52.5 (67469) - http://www.bohemiancoding.com/sketch -->
    <title>画板</title>
    <desc>Created with Sketch.</desc>
    <g id="菜单" stroke="none" stroke-width="1" fill="none" fill-rule="evenodd" opacity="0.65">
        <g id="菜单图标切图" transform="translate(-106.000000, -49.000000)" fill="#FFFFFF">
            <g id="dingdanguanli" transform="translate(106.000000, 49.000000)">
                <g id="分组" transform="translate(0.000000, 1.000000)">
                    <path d="M10.4217951,13.9999621 L1.55845854,13.9999621 C0.703278049,13.9999621 0,13.3162195 0,12.4770163 L0,1.52884553 C0,0.697420054 0.703278049,0.0136775068 1.55845854,0.0136775068 L10.4217951,0.0136775068 C11.2849756,0.0136775068 11.9882537,0.697420054 11.9882537,1.52884553 L11.9882537,12.4770163 C11.9882537,13.3162195 11.2849756,13.9999621 10.4217951,13.9999621 Z M1.55845854,0.790715447 C1.14290732,0.790715447 0.799239024,1.12476152 0.799239024,1.52884553 L0.799239024,12.4770163 C0.799239024,12.888878 1.14290732,13.223 1.55845854,13.223 L10.4217951,13.223 C10.8454244,13.223 11.1890927,12.888878 11.1890927,12.4770163 L11.1890927,1.52884553 C11.1890927,1.12476152 10.8454244,0.790715447 10.4217951,0.790715447 L1.55845854,0.790715447 Z" id="Fill-1"></path>
                </g>
                <path d="M3.38888783,2.57140316 C3.17112584,2.57140316 3,2.38281532 3,2.14281155 L3,0.428570681 C3,0.188587841 3.17112584,0 3.38888783,0 C3.60666882,0 3.77779466,0.188587841 3.77779466,0.428570681 L3.77779466,2.14281155 C3.77779466,2.38281532 3.60666882,2.57140316 3.38888783,2.57140316 Z M8.38881188,2.57140316 C8.17103089,2.57140316 8,2.38281532 8,2.14281155 L8,0.428570681 C8,0.188587841 8.17103089,0 8.38881188,0 C8.60659286,0 8.7777187,0.188587841 8.7777187,0.428570681 L8.7777187,2.14281155 C8.7777187,2.38281532 8.60659286,2.57140316 8.38881188,2.57140316 Z M8.61109318,6.8571309 L2.38888783,6.8571309 C2.17112584,6.8571309 2,6.66854306 2,6.42853929 C2,6.18853553 2.17112584,5.99996861 2.38888783,5.99996861 L8.61109318,5.99996861 C8.82887416,5.99996861 9,6.18853553 9,6.42853929 C9,6.66854306 8.82887416,6.8571309 8.61109318,6.8571309 Z M7.05557982,9.42853406 L2.38888783,9.42853406 C2.17112584,9.42853406 2,9.23994622 2,8.99994245 C2,8.75993869 2.17112584,8.57145548 2.38888783,8.57145548 L7.05557982,8.57145548 C7.2733608,8.57145548 7.44448664,8.75993869 7.44448664,8.99994245 C7.44448664,9.23994622 7.2733608,9.42853406 7.05557982,9.42853406 Z M5.49999051,12 L2.38888783,12 C2.17112584,12 2,11.8114331 2,11.5714293 C2,11.3314256 2.17112584,11.1428377 2.38888783,11.1428377 L5.49999051,11.1428377 C5.71777149,11.1428377 5.88889733,11.3314256 5.88889733,11.5714293 C5.88889733,11.8114331 5.71777149,12 5.49999051,12 Z" id="Fill-3"></path>
            </g>
        </g>
    </g>
</svg>