<?xml version="1.0" encoding="UTF-8"?>
<svg width="14px" height="14px" viewBox="0 0 14 14" version="1.1" xmlns="http://www.w3.org/2000/svg" xmlns:xlink="http://www.w3.org/1999/xlink">
    <!-- Generator: Sketch 52.5 (67469) - http://www.bohemiancoding.com/sketch -->
    <title>画板</title>
    <desc>Created with Sketch.</desc>
    <g id="菜单" stroke="none" stroke-width="1" fill="none" fill-rule="evenodd" opacity="0.65">
        <g id="菜单图标切图" transform="translate(-338.000000, -50.000000)" fill="#FFFFFF">
            <g id="ziyuan" transform="translate(338.000000, 50.000000)">
                <path d="M13.3981364,1.49001403 L4.87057884,1.49001403 C4.64265974,0.613303971 3.86174029,0.00174316619 2.96787216,0 C2.08138343,0.0107495248 1.31092656,0.620379175 1.08492812,1.49001403 L0.601863624,1.49001403 C0.402249081,1.44930597 0.198169831,1.53475529 0.0849010454,1.7063888 C-0.0283003485,1.87802231 -0.0283003485,2.10198499 0.0849010454,2.2736185 C0.198169831,2.44525201 0.402249081,2.53070133 0.601863624,2.48997618 L1.08492812,2.48997618 C1.30341237,3.36750655 2.07572252,3.98680907 2.96787216,4.00003662 C3.86174029,3.9982251 4.64265974,3.38673265 4.87057884,2.51000551 L13.3981364,2.51000551 C13.6329631,2.46213679 13.8018302,2.25292267 13.8018302,2.00999025 C13.8018302,1.76705782 13.6329631,1.5578437 13.3981364,1.50997499 L13.3981364,1.49001403 Z M2.96787216,3.0000061 C2.42341372,3.0000061 1.9820816,2.55226874 1.9820816,1.99997559 C1.9820816,1.44769952 2.42341372,1.00003052 2.96787216,1.00003052 C3.51234744,1.00003052 3.95374695,1.44769952 3.95374695,1.99997559 C3.95374695,2.26521028 3.84989617,2.51955874 3.6649562,2.70713709 C3.48010046,2.89466418 3.22935238,3.0000061 2.96787216,3.0000061 Z M13.3981364,11.4899945 L4.87057884,11.4899945 C4.64265974,10.6132674 3.86174029,10.0017749 2.96787216,10.0000488 C2.08138343,10.0107813 1.31092656,10.6204109 1.08492812,11.4899945 L0.601863624,11.4899945 C0.402249081,11.4493377 0.198169831,11.5347187 0.0849010454,11.7063522 C-0.0283003485,11.8780541 -0.0283003485,12.1020338 0.0849010454,12.2736673 C0.198169831,12.4453008 0.402249081,12.5307502 0.601863624,12.490025 L1.08492812,12.490025 C1.30341237,13.3675383 2.07572252,13.9868579 2.96787216,14 C3.86174029,13.9982739 4.64265974,13.3867644 4.87057884,12.5100543 L13.3981364,12.5100543 C13.5977509,12.5507111 13.8018302,12.4652618 13.915099,12.2936283 C14.0283003,12.1219948 14.0283003,11.898015 13.915099,11.7263815 C13.8018302,11.554748 13.5977509,11.4692987 13.3981364,11.5100238 L13.3981364,11.4899945 Z M2.96787216,13.0000378 C2.42341372,13.0000378 1.9820816,12.5523005 1.9820816,12.0000244 C1.9820816,11.4477313 2.42341372,10.9999939 2.96787216,10.9999939 C3.51234744,10.9999939 3.95374695,11.4477313 3.95374695,12.0000244 C3.95374695,12.265242 3.84989617,12.5195905 3.6649562,12.7071176 C3.48010046,12.8946446 3.22935238,13.0000378 2.96787216,13.0000378 Z M0.601863624,6.49001281 L9.12942116,6.49001281 C9.35739081,5.61328566 10.1382597,5.00179322 11.0321278,4.99998169 C11.9186166,5.01073121 12.6890734,5.62042922 12.9150719,6.49001281 L13.3882635,6.49001281 C13.587878,6.44928766 13.7919573,6.53473698 13.9052261,6.70637049 C14.0184274,6.878004 14.0184274,7.10196668 13.9052261,7.27360019 C13.7919573,7.44530206 13.587878,7.53068302 13.3882635,7.49002623 L12.9150719,7.49002623 C12.6965876,8.3675566 11.9242775,8.98685911 11.0321278,9.00001831 C10.1382597,8.99827514 9.35739081,8.38671434 9.12942116,7.50998719 L0.601863624,7.50998719 C0.402249081,7.55071234 0.198169831,7.46526302 0.0849010454,7.29362951 C-0.0283003485,7.121996 -0.0283003485,6.89803332 0.0849010454,6.72639981 C0.198169831,6.5547663 0.402249081,6.46931698 0.601863624,6.51004213 L0.601863624,6.49001281 Z M11.0321278,7.99998779 C11.5765863,7.99998779 12.0179184,7.55231879 12.0179184,7.00004272 C12.0179184,6.44774957 11.5765863,6.00001221 11.0321278,6.00001221 C10.4876526,6.00001221 10.046253,6.44774957 10.046253,7.00004272 C10.046253,7.26519197 10.1501038,7.51960879 10.3350438,7.70713587 C10.5198995,7.89464587 10.7706476,7.99998779 11.0321278,7.99998779 Z" id="Fill-1"></path>
            </g>
        </g>
    </g>
</svg>