<?xml version="1.0" encoding="UTF-8"?>
<svg width="14px" height="17px" viewBox="0 0 14 17" version="1.1" xmlns="http://www.w3.org/2000/svg" xmlns:xlink="http://www.w3.org/1999/xlink">
    <!-- Generator: Sketch 52.5 (67469) - http://www.bohemiancoding.com/sketch -->
    <title>画板</title>
    <desc>Created with Sketch.</desc>
    <g id="菜单" stroke="none" stroke-width="1" fill="none" fill-rule="evenodd" opacity="0.65">
        <g id="菜单图标切图" transform="translate(-303.000000, -48.000000)" fill="#FFFFFF">
            <g id="dingdangenzong" transform="translate(303.000000, 48.000000)">
                <g id="分组" stroke="#2F4156" stroke-width="0.4">
                    <path d="M13.6301493,4.07588421 C13.6113694,4.03293684 13.5841269,3.99208571 13.5507724,3.95734436 L10.2743022,0.578818045 C10.2450224,0.548064662 10.2137052,0.525593985 10.178209,0.505117293 C9.9566903,0.212717293 9.60154478,0.0224962406 9.20238806,0.0224962406 L1.88059701,0.0224962406 C0.844179104,0.0224962406 0,0.848721805 0,1.86309774 L0,15.1338602 C0,16.1482361 0.844179104,16.9744617 1.88059701,16.9744617 L12.1006231,16.9744617 C13.137041,16.9744617 13.9812201,16.1482361 13.9812201,15.1338602 L13.9812201,4.89602556 C13.9790784,4.57696241 13.8453209,4.28658195 13.6301493,4.07588421 Z M12.1778582,3.73026015 L10.6587537,3.7118797 C10.5418433,3.70978346 10.4457239,3.61573383 10.4435821,3.50118195 L10.4248022,1.92240602 L12.1778582,3.73026015 Z M12.9761455,15.1338602 C12.9761455,15.6083008 12.5833358,15.9927564 12.0984813,15.9927564 L1.88059701,15.9927564 C1.39584701,15.9927564 1.00293284,15.6083008 1.00293284,15.1338602 L1.00293284,1.86309774 C1.00293284,1.38865714 1.39584701,1.00409925 1.88059701,1.00409925 L9.20238806,1.00409925 C9.31728731,1.00409925 9.4133806,1.09618045 9.41552239,1.21070677 L9.44268657,3.5134782 C9.44686567,3.82643158 9.57223881,4.12289624 9.79997388,4.34379398 C10.0256716,4.56678797 10.3286828,4.68941805 10.6483582,4.69350827 L12.8005448,4.71807519 C12.898806,4.72017143 12.9781828,4.79786015 12.9781828,4.89392932 L12.9781828,15.1338602 L12.9761455,15.1338602 Z" id="Fill-1"></path>
                </g>
                <path d="M10.6016916,9.61070735 L5.60289583,9.61070735 C5.75226149,9.39118452 6.1545779,8.7882588 6.5608525,8.08324747 C7.26780019,6.85955043 7.61233698,5.99273732 7.61233698,5.43852671 C7.61233698,4.09293104 6.57678484,3 5.30620583,3 C4.03552725,3 3,4.09293104 3,5.43852671 C3,5.99273732 3.3445368,6.85955043 4.05148448,8.08324747 C4.45980041,8.7882588 4.86007549,9.39118452 5.00944115,9.61070735 L4.02960241,9.61070735 C3.81050787,9.61070735 3.63129397,9.81019546 3.63129397,10.0540758 C3.63129397,10.2978177 3.81050787,10.4974443 4.02960241,10.4974443 L10.6016916,10.4974443 C10.8207861,10.4974443 11,10.2978177 11,10.0540758 C11,9.81019546 10.8207861,9.61070735 10.6016916,9.61070735 Z M3.59746265,5.43852671 C3.59746265,4.46098231 4.36423128,3.66505274 5.30620583,3.66505274 C6.24820528,3.66505274 7.01487433,4.46098231 7.01487433,5.43852671 C7.01487433,6.12577558 6.04700973,7.81947093 5.30620583,8.94338235 C4.56532725,7.82163235 3.59746265,6.12804784 3.59746265,5.43852671 Z M10.6016916,13.113263 L4.02960241,13.113263 C3.81050787,13.113263 3.63129397,13.3127511 3.63129397,13.5566315 C3.63129397,13.8005119 3.81050787,14 4.02960241,14 L10.6016916,14 C10.8207861,14 11,13.8005119 11,13.5566315 C11,13.3127511 10.8207861,13.113263 10.6016916,13.113263 Z" id="Fill-3"></path>
                <path d="M6,5.49997807 C6,5.22457237 5.77543613,5 5.50001645,5 C5.22456387,5 5,5.22457237 5,5.49997807 C5,5.77542763 5.22456387,6 5.50001645,6 C5.77543613,6 6,5.77542763 6,5.49997807 Z M5.21051766,5.49997807 C5.21051766,5.34033991 5.34034364,5.21052632 5.50001645,5.21052632 C5.65965636,5.21052632 5.78948234,5.34033991 5.78948234,5.49997807 C5.78948234,5.65966009 5.65965636,5.78947368 5.50001645,5.78947368 C5.34034364,5.78947368 5.21051766,5.65966009 5.21051766,5.49997807 Z" id="Fill-4"></path>
            </g>
        </g>
    </g>
</svg>