<?xml version="1.0" encoding="UTF-8"?>
<svg width="14px" height="15px" viewBox="0 0 14 15" version="1.1" xmlns="http://www.w3.org/2000/svg" xmlns:xlink="http://www.w3.org/1999/xlink">
    <!-- Generator: Sketch 52.5 (67469) - http://www.bohemiancoding.com/sketch -->
    <title>画板</title>
    <desc>Created with Sketch.</desc>
    <g id="菜单" stroke="none" stroke-width="1" fill="none" fill-rule="evenodd" opacity="0.65">
        <g id="菜单图标切图" transform="translate(-186.000000, -50.000000)" fill="#FFFFFF" stroke="#FFFFFF" stroke-width="0.2">
            <g id="Clearing_system" transform="translate(186.000000, 50.000000)">
                <g id="分组-3" transform="translate(6.000000, 7.000000)">
                    <path d="M7.38817648,4.38347986 L6.67449073,4.38347986 C6.55216938,4.38347986 6.45022046,4.46522298 6.38892975,4.56739645 L6.08306133,5.26209364 C6.02203069,5.38469747 6.06249383,5.50727961 6.14426536,5.60945308 L6.63359414,6.09980333 L6.10330374,6.61058393 L5.59373255,6.12023368 C5.51211274,6.03846888 5.3895313,6.01806021 5.26703656,6.05889924 L4.55335082,6.34498929 C4.43085608,6.38582832 4.34949633,6.50841046 4.34949633,6.63101429 L4.34949633,7.42788495 L3.59491399,7.42788495 L3.59491399,6.65142296 C3.59491399,6.52884082 3.51331585,6.40623699 3.41138861,6.36539796 L2.69761617,6.05889924 C2.57512143,6.01806021 2.45260502,6.03846888 2.37118026,6.12023368 L1.86143569,6.61058393 L1.331297,6.09980333 L1.82062578,5.62986175 C1.90207221,5.54811863 1.94314219,5.40510613 1.88167809,5.30293266 L1.5962038,4.60823547 C1.5553072,4.48565333 1.43322424,4.42438395 1.3107295,4.42438395 L0.596957064,4.42438395 L0.596957064,3.70927809 L1.3107295,3.70927809 C1.43322424,3.70927809 1.53506479,3.62751329 1.5962038,3.52533982 L1.90207221,2.83081613 C1.96336293,2.7082123 1.92246633,2.58563016 1.84104157,2.48328319 L1.35169112,1.99293294 L1.8818298,1.48215233 L2.39174776,1.97252427 C2.47325921,2.05426739 2.59560224,2.07469774 2.71794527,2.03377196 L3.43160934,1.74774697 C3.55412576,1.70690795 3.63581059,1.58432581 3.63581059,1.46174367 L3.63581059,0.664873004 L4.39039293,0.664873004 L4.39039293,1.44122656 C4.39039293,1.56383038 4.47199108,1.68649928 4.57391832,1.7273383 L5.28769075,2.03377196 C5.41001211,2.07469774 5.53235514,2.05426739 5.61380158,1.97252427 L6.12369786,1.48215233 L6.65383654,1.99293294 L6.16459445,2.46287452 C6.08288795,2.54461763 6.04225142,2.68763013 6.10345545,2.7898036 L6.38892975,3.48450079 C6.42982634,3.60710462 6.55216938,3.66835231 6.67423066,3.66835231 L7.38817648,3.66835231 L7.38817648,4.38347986 Z M7.69413158,3.05539824 L6.87825853,3.05539824 L6.75611055,2.72846915 L7.32697245,2.17684953 C7.38817648,2.11551508 7.428813,2.03377196 7.428813,1.95209391 C7.428813,1.8703508 7.38817648,1.788586 7.32697245,1.7273383 L6.36836225,0.787455144 C6.2458675,0.664699497 6.06249383,0.664699497 5.9401508,0.787455144 L5.36913719,1.35939669 L5.04285298,1.21629744 L5.04285298,0.337770415 C5.04285298,0.174327561 4.90011583,0.03125 4.73689787,0.03125 L3.3705787,0.03125 C3.20751245,0.03125 3.06445021,0.174327561 3.06445021,0.337770415 L3.06445021,1.21629744 L2.71794527,1.33890127 L2.1467366,0.787281637 C2.02456695,0.664699497 1.84104157,0.664699497 1.71869854,0.787281637 L0.760110003,1.7271648 C0.698884305,1.78841249 0.658161089,1.87017729 0.658161089,1.95192041 C0.658161089,2.03359846 0.699057688,2.11536326 0.760110003,2.17669771 L1.33095023,2.72829565 L1.18838647,3.03481606 L0.372535082,3.03481606 C0.209555525,3.03481606 0.0666666667,3.17800207 0.0666666667,3.34142323 L0.0666666667,4.66956992 C0.0666666667,4.83281758 0.209555525,4.97600358 0.372535082,4.97600358 L1.18838647,4.97600358 L1.31090288,5.30293266 L0.739694213,5.85463905 C0.678663571,5.91588674 0.637593589,5.99762985 0.637593589,6.07939466 C0.637593589,6.16107271 0.678663571,6.24281582 0.739694213,6.30406352 L1.69813104,7.24394667 C1.82062578,7.3665505 2.00399945,7.3665505 2.12649419,7.24394667 L2.69744279,6.67191838 L3.02381369,6.81493087 L3.02381369,7.69347959 C3.02381369,7.8569875 3.16655084,8 3.3296821,8 L4.69608797,8 C4.85939261,8 5.00195638,7.8569875 5.00195638,7.69347959 L5.00195638,6.81493087 L5.3487214,6.69234873 L5.91949661,7.24420693 C6.04207804,7.36678907 6.22545171,7.36678907 6.34796813,7.24420693 L7.30646997,6.30432377 C7.36776069,6.24298933 7.40839721,6.16107271 7.40839721,6.07939466 C7.40839721,5.99762985 7.36760898,5.91588674 7.30646997,5.85463905 L6.73554305,5.30293266 L6.87825853,4.99641225 L7.69413158,4.99641225 C7.85743623,4.99641225 8,4.85342144 8,4.68997859 L8,3.36191865 C8,3.19841073 7.85726285,3.05539824 7.69413158,3.05539824 Z" id="Fill-1"></path>
                    <path d="M3.91654764,4.53114252 C3.74917014,4.5317844 3.58847286,4.46529779 3.47014812,4.34646081 C3.35188289,4.22768355 3.28575018,4.06640799 3.28655359,3.89841511 C3.28575018,3.73048194 3.35182338,3.56913174 3.47014812,3.45029477 C3.58847286,3.33145779 3.74922965,3.2649264 3.91666667,3.26562799 C4.08404417,3.26498611 4.24480097,3.33145779 4.36306619,3.45029477 C4.48139093,3.56913174 4.54746413,3.73048194 4.54666072,3.89841511 C4.54746413,4.06640799 4.48139093,4.22774326 4.36306619,4.34658023 C4.24474145,4.46541721 4.08398466,4.53188889 3.91654764,4.53124701 M3.91654764,2.84375 C3.34258414,2.84375 2.86666667,3.32184455 2.86666667,3.89841511 C2.86666667,4.47504538 3.34258414,4.953125 3.91654764,4.953125 C4.49057065,4.953125 4.96666667,4.47504538 4.96666667,3.89841511 C4.96666667,3.30778294 4.50463036,2.84375 3.91654764,2.84375" id="Fill-3"></path>
                </g>
                <path d="M0.558153329,13.9687182 L0.558153329,1.03120223 C0.556848401,0.906670612 0.605427315,0.786696724 0.692936582,0.698547363 C0.78044585,0.6103781 0.899530424,0.561317776 1.02334042,0.562492039 L9.04174781,0.562492039 L9.04174781,2.60624761 C9.04066037,2.83023337 9.1285453,3.04536239 9.28578914,3.20380833 C9.44303297,3.36225427 9.65666551,3.45088129 9.87917552,3.45002548 L10.3812763,3.45002548 L10.3812763,2.88753344 L9.87917552,2.88753344 C9.73011715,2.88753344 9.59990114,2.75621497 9.59990114,2.60624761 L9.59990114,0.993745223 L11.4418269,3.13126274 L11.4418269,7.12503184 L12,7.12503184 L12,3.09370621 C12,2.98121577 11.9626909,2.86872532 11.8882309,2.79377149 L9.61850625,0.168775476 C9.52544115,0.0750334367 9.39516583,0 9.26494983,0 L1.02334042,0 C0.465167317,0 0,0.468730097 0,1.03120223 L0,13.9687182 C0,14.5312699 0.465167317,15 1.02334042,15 L6.34414512,15 L6.34414512,14.437508 L1.02334042,14.437508 C0.899530424,14.4386822 0.78044585,14.3897015 0.692936582,14.3014526 C0.605427315,14.2133033 0.556848401,14.093409 0.558153329,13.9687182" id="Fill-4"></path>
                <path d="M2,2.55836701 L5.69216516,2.55836701 L5.69216516,2 L2,2 L2,2.55836701 Z M9.38459191,6.02027408 L10,6.02027408 L10,4.90355982 L9.38459191,4.90355982 L9.38459191,6.02027408 Z M6.41027206,7.88150403 L7.02570195,7.88150403 L7.02570195,4.90355982 L6.41027206,4.90355982 L6.41027206,7.88150403 Z M2.82039152,9.09131239 C2.82039152,8.73784327 3.14839118,8.44010812 3.53823683,8.44010812 C3.92808249,8.44010812 4.25619114,8.73784327 4.25619114,9.09154947 C4.25619114,9.44515689 3.92808249,9.74297107 3.53823683,9.74297107 C3.14839118,9.74297107 2.82039152,9.44515689 2.82039152,9.09154947 L2.82039152,9.09131239 Z M3.84615888,13 L3.84615888,10.2642941 C4.44081357,10.1339386 4.87159923,9.65005478 4.87159923,9.09168777 C4.87159923,8.53334052 4.44081357,8.04937766 3.84615888,7.91910124 L3.84615888,5.18270381 L3.23057639,5.18270381 L3.23057639,7.91878514 C2.6358563,8.04906155 2.20496163,8.53294538 2.20496163,9.09131239 C2.20496163,9.64973867 2.6358563,10.1336423 3.23057639,10.2638989 L3.23057639,13 L3.84615888,13 Z M3.53823683,4.04737863 L4.15366672,4.04737863 L4.15366672,3.48901162 L3.53823683,3.48901162 L3.53823683,4.04737863 Z M2,4.04737863 L2.61532089,4.04737863 L2.61532089,3.48901162 L2,3.48901162 L2,4.04737863 Z" id="Fill-5"></path>
            </g>
        </g>
    </g>
</svg>