<?xml version="1.0" encoding="UTF-8"?>
<svg width="17px" height="16px" viewBox="0 0 17 16" version="1.1" xmlns="http://www.w3.org/2000/svg" xmlns:xlink="http://www.w3.org/1999/xlink">
    <!-- Generator: Sketch 52.5 (67469) - http://www.bohemiancoding.com/sketch -->
    <title>shangyiyiceng</title>
    <desc>Created with Sketch.</desc>
    <g id="Page-1" stroke="none" stroke-width="1" fill="none" fill-rule="evenodd">
        <g id="导出" transform="translate(-910.000000, -191.000000)" fill="#FFFFFF">
            <g id="分组-42" transform="translate(525.000000, 104.000000)">
                <g id="分组-41" transform="translate(294.000000, 80.000000)">
                    <g id="上移" transform="translate(80.666667, 0.000000)">
                        <g id="分组-18" transform="translate(11.000000, 5.000000)">
                            <g id="分组-23">
                                <g id="shangyiyiceng" transform="translate(0.000000, 2.000000)">
                                    <path d="M1.06668542,14.9498102 L14.9333146,14.9498102 L14.9333146,12.8493846 L1.06668542,12.8493846 L1.06668542,14.9498102 Z M0,16 L16,16 L16,11.7991718 L0,11.7991718 L0,16 Z M0,9.69886148 L6.39997188,9.69886148 L6.39997188,8.64864865 L0,8.64864865 L0,9.69886148 Z M9.60002812,9.69886148 L16,9.69886148 L16,8.64864865 L9.60002812,8.64864865 L9.60002812,9.69886148 Z" id="Fill-1"></path>
                                    <polygon id="Fill-2" points="7.35135135 12.7567568 8.43243243 12.7567568 8.43243243 1.08108108 7.35135135 1.08108108"></polygon>
                                    <polygon id="Fill-3" points="11.1458356 4.54054054 11.8918919 3.78374023 8.0548167 0 4.32432432 3.78374023 5.0704509 4.54054054 8.0548167 1.51348184"></polygon>
                                </g>
                            </g>
                        </g>
                    </g>
                </g>
            </g>
        </g>
    </g>
</svg>