<?xml version="1.0" encoding="UTF-8"?>
<svg width="14px" height="14px" viewBox="0 0 14 14" version="1.1" xmlns="http://www.w3.org/2000/svg" xmlns:xlink="http://www.w3.org/1999/xlink">
    <!-- Generator: Sketch 52.5 (67469) - http://www.bohemiancoding.com/sketch -->
    <title>画板</title>
    <desc>Created with Sketch.</desc>
    <g id="菜单" stroke="none" stroke-width="1" fill="none" fill-rule="evenodd" opacity="0.65">
        <g id="菜单图标切图" transform="translate(-265.000000, -50.000000)" fill="#FFFFFF">
            <g id="xitongguanli-3" transform="translate(265.000000, 50.000000)">
                <g id="分组">
                    <path d="M3.45838699,12.2469168 L0,12.2469168 L0,0.00913539967 L13.9972455,0.00913539967 L13.9754602,3.99580098 L12.8827772,3.99034258 L12.8991447,1.10538336 L1.09268293,1.10538336 L1.09268293,11.1506688 L3.45838699,11.1506688 L3.45838699,12.2469168 Z M1.65539187,13.9772072 L4.66026992,13.9772072 L4.66026992,12.8809592 L1.65539187,12.8809592 L1.65539187,13.9772072 Z" id="Fill-1" stroke="#2F4156" stroke-width="0.5"></path>
                    <path d="M13.3881765,10.3834799 L12.6744907,10.3834799 C12.5521694,10.3834799 12.4502205,10.465223 12.3889297,10.5673964 L12.0830613,11.2620936 C12.0220307,11.3846975 12.0624938,11.5072796 12.1442654,11.6094531 L12.6335941,12.0998033 L12.1033037,12.6105839 L11.5937326,12.1202337 C11.5121127,12.0384689 11.3895313,12.0180602 11.2670366,12.0588992 L10.5533508,12.3449893 C10.4308561,12.3858283 10.3494963,12.5084105 10.3494963,12.6310143 L10.3494963,13.4278849 L9.59491399,13.4278849 L9.59491399,12.651423 C9.59491399,12.5288408 9.51331585,12.406237 9.41138861,12.365398 L8.69761617,12.0588992 C8.57512143,12.0180602 8.45260502,12.0384689 8.37118026,12.1202337 L7.86143569,12.6105839 L7.331297,12.0998033 L7.82062578,11.6298617 C7.90207221,11.5481186 7.94314219,11.4051061 7.88167809,11.3029327 L7.5962038,10.6082355 C7.5553072,10.4856533 7.43322424,10.424384 7.3107295,10.424384 L6.59695706,10.424384 L6.59695706,9.70927809 L7.3107295,9.70927809 C7.43322424,9.70927809 7.53506479,9.62751329 7.5962038,9.52533982 L7.90207221,8.83081613 C7.96336293,8.7082123 7.92246633,8.58563016 7.84104157,8.48328319 L7.35169112,7.99293294 L7.8818298,7.48215233 L8.39174776,7.97252427 C8.47325921,8.05426739 8.59560224,8.07469774 8.71794527,8.03377196 L9.43160934,7.74774697 C9.55412576,7.70690795 9.63581059,7.58432581 9.63581059,7.46174367 L9.63581059,6.664873 L10.3903929,6.664873 L10.3903929,7.44122656 C10.3903929,7.56383038 10.4719911,7.68649928 10.5739183,7.7273383 L11.2876908,8.03377196 C11.4100121,8.07469774 11.5323551,8.05426739 11.6138016,7.97252427 L12.1236979,7.48215233 L12.6538365,7.99293294 L12.1645945,8.46287452 C12.0828879,8.54461763 12.0422514,8.68763013 12.1034554,8.7898036 L12.3889297,9.48450079 C12.4298263,9.60710462 12.5521694,9.66835231 12.6742307,9.66835231 L13.3881765,9.66835231 L13.3881765,10.3834799 Z M13.6941316,9.05539824 L12.8782585,9.05539824 L12.7561105,8.72846915 L13.3269725,8.17684953 C13.3881765,8.11551508 13.428813,8.03377196 13.428813,7.95209391 C13.428813,7.8703508 13.3881765,7.788586 13.3269725,7.7273383 L12.3683622,6.78745514 C12.2458675,6.6646995 12.0624938,6.6646995 11.9401508,6.78745514 L11.3691372,7.35939669 L11.042853,7.21629744 L11.042853,6.33777041 C11.042853,6.17432756 10.9001158,6.03125 10.7368979,6.03125 L9.3705787,6.03125 C9.20751245,6.03125 9.06445021,6.17432756 9.06445021,6.33777041 L9.06445021,7.21629744 L8.71794527,7.33890127 L8.1467366,6.78728164 C8.02456695,6.6646995 7.84104157,6.6646995 7.71869854,6.78728164 L6.76011,7.7271648 C6.69888431,7.78841249 6.65816109,7.87017729 6.65816109,7.95192041 C6.65816109,8.03359846 6.69905769,8.11536326 6.76011,8.17669771 L7.33095023,8.72829565 L7.18838647,9.03481606 L6.37253508,9.03481606 C6.20955553,9.03481606 6.06666667,9.17800207 6.06666667,9.34142323 L6.06666667,10.6695699 C6.06666667,10.8328176 6.20955553,10.9760036 6.37253508,10.9760036 L7.18838647,10.9760036 L7.31090288,11.3029327 L6.73969421,11.854639 C6.67866357,11.9158867 6.63759359,11.9976299 6.63759359,12.0793947 C6.63759359,12.1610727 6.67866357,12.2428158 6.73969421,12.3040635 L7.69813104,13.2439467 C7.82062578,13.3665505 8.00399945,13.3665505 8.12649419,13.2439467 L8.69744279,12.6719184 L9.02381369,12.8149309 L9.02381369,13.6934796 C9.02381369,13.8569875 9.16655084,14 9.3296821,14 L10.696088,14 C10.8593926,14 11.0019564,13.8569875 11.0019564,13.6934796 L11.0019564,12.8149309 L11.3487214,12.6923487 L11.9194966,13.2442069 C12.042078,13.3667891 12.2254517,13.3667891 12.3479681,13.2442069 L13.30647,12.3043238 C13.3677607,12.2429893 13.4083972,12.1610727 13.4083972,12.0793947 C13.4083972,11.9976299 13.367609,11.9158867 13.30647,11.854639 L12.735543,11.3029327 L12.8782585,10.9964122 L13.6941316,10.9964122 C13.8574362,10.9964122 14,10.8534214 14,10.6899786 L14,9.36191865 C14,9.19841073 13.8572629,9.05539824 13.6941316,9.05539824 Z" id="Fill-1" stroke="#FFFFFF" stroke-width="0.2"></path>
                    <path d="M9.91654764,10.5311425 C9.74917014,10.5317844 9.58847286,10.4652978 9.47014812,10.3464608 C9.35188289,10.2276835 9.28575018,10.066408 9.28655359,9.89841511 C9.28575018,9.73048194 9.35182338,9.56913174 9.47014812,9.45029477 C9.58847286,9.33145779 9.74922965,9.2649264 9.91666667,9.26562799 C10.0840442,9.26498611 10.244801,9.33145779 10.3630662,9.45029477 C10.4813909,9.56913174 10.5474641,9.73048194 10.5466607,9.89841511 C10.5474641,10.066408 10.4813909,10.2277433 10.3630662,10.3465802 C10.2447415,10.4654172 10.0839847,10.5318889 9.91654764,10.531247 M9.91654764,8.84375 C9.34258414,8.84375 8.86666667,9.32184455 8.86666667,9.89841511 C8.86666667,10.4750454 9.34258414,10.953125 9.91654764,10.953125 C10.4905707,10.953125 10.9666667,10.4750454 10.9666667,9.89841511 C10.9666667,9.30778294 10.5046304,8.84375 9.91654764,8.84375" id="Fill-3" stroke="#FFFFFF" stroke-width="0.2"></path>
                </g>
            </g>
        </g>
    </g>
</svg>