<?xml version="1.0" encoding="UTF-8"?>
<svg width="12px" height="14px" viewBox="0 0 12 14" version="1.1" xmlns="http://www.w3.org/2000/svg" xmlns:xlink="http://www.w3.org/1999/xlink">
    <!-- Generator: Sketch 52.5 (67469) - http://www.bohemiancoding.com/sketch -->
    <title>画板</title>
    <desc>Created with Sketch.</desc>
    <g id="菜单" stroke="none" stroke-width="1" fill="none" fill-rule="evenodd" opacity="0.65">
        <g id="菜单图标切图" transform="translate(-145.000000, -50.000000)" fill="#FFFFFF">
            <g id="biaodanku" transform="translate(145.000000, 50.000000)">
                <g id="分组">
                    <path d="M2.56811465,13.1069638 L11.1286242,13.1069638 L11.1286242,2.62447354 L2.56811465,2.62447354 L2.56811465,13.1069638 Z M11.1286242,1.75101393 L2.56811465,1.75101393 C2.09579618,1.75101393 1.71214013,2.14250696 1.71214013,2.62447354 L1.71214013,13.1069638 C1.71214013,13.5889499 2.09579618,13.9805209 2.56811465,13.9805209 L11.1286242,13.9805209 C11.6010382,13.9805209 11.9846943,13.5889499 11.9846943,13.1069638 L11.9846943,2.62447354 C11.9846943,2.14250696 11.6010382,1.75101393 11.1286242,1.75101393 Z" id="Fill-1"></path>
                    <path d="M9.41657962,0.877456825 L9.41657962,1.75101393 L2.56811465,1.75101393 L1.71214013,2.62447354 L1.71214013,11.3598496 L0.856070064,11.3598496 L0.856070064,0.877456825 L9.41657962,0.877456825 Z M9.41657962,0.00389972145 L0.856070064,0.00389972145 C0.383656051,0.00389972145 0,0.395392758 0,0.877456825 L0,11.3598496 C0,11.8419136 0.383656051,12.2334067 0.856070064,12.2334067 L2.56811465,12.2334067 L2.56811465,2.62447354 L10.2726497,2.62447354 L10.2726497,0.877456825 C10.2726497,0.395392758 9.8889172,0.00389972145 9.41657962,0.00389972145 Z" id="Fill-3"></path>
                </g>
                <path d="M8.58335348,4.85715652 L4.41670232,4.85715652 C4.18601121,4.85715652 4,4.66583121 4,4.42862609 C4,4.19132531 4.18601121,4 4.41670232,4 L8.58335348,4 C8.81398879,4 9,4.19132531 9,4.42862609 C9,4.66583121 8.8125193,4.85715652 8.58335348,4.85715652 Z M8.58335348,7.42862609 L4.41670232,7.42862609 C4.18601121,7.42862609 4,7.23730078 4,7 C4,6.76279488 4.18601121,6.57146957 4.41670232,6.57146957 L8.58335348,6.57146957 C8.81398879,6.57146957 9,6.76279488 9,7 C9,7.23730078 8.8125193,7.42862609 8.58335348,7.42862609 Z M8.58335348,10 L4.41670232,10 C4.18601121,10 4,9.80867469 4,9.57146957 C4,9.33416879 4.18601121,9.14284348 4.41670232,9.14284348 L8.58335348,9.14284348 C8.81398879,9.14284348 9,9.33416879 9,9.57146957 C9,9.80867469 8.8125193,10 8.58335348,10 Z" id="Fill-4"></path>
            </g>
        </g>
    </g>
</svg>