<?xml version="1.0" encoding="UTF-8"?>
<svg width="16px" height="13px" viewBox="0 0 16 13" version="1.1" xmlns="http://www.w3.org/2000/svg" xmlns:xlink="http://www.w3.org/1999/xlink">
    <!-- Generator: Sketch 52.5 (67469) - http://www.bohemiancoding.com/sketch -->
    <title>画板</title>
    <desc>Created with Sketch.</desc>
    <g id="菜单" stroke="none" stroke-width="1" fill="none" fill-rule="evenodd">
        <g id="菜单图标切图" transform="translate(-54.000000, -93.000000)" fill="#FFFFFF">
            <g id="仪表盘" transform="translate(54.000000, 93.000000)">
                <g id="yibiaopan">
                    <path d="M15.363957,5.18121643 C14.9608356,4.17250501 14.3847865,3.26586573 13.6513917,2.48643888 C12.9180215,1.70904409 12.0626974,1.09632465 11.109063,0.671154309 C10.124043,0.229284569 9.07603072,0.00416833667 7.99653456,0.00416833667 C6.91713671,0.00416833667 5.87106605,0.229284569 4.88403072,0.671154309 C3.93241167,1.09835671 3.07708756,1.70904409 2.34177573,2.48643888 C1.60636559,3.26383367 1.03034101,4.17047295 0.629235023,5.18121643 C0.212374808,6.22543687 0,7.3362986 0,8.48045491 L0.904479263,8.48045491 C0.904479263,4.33501804 4.08572657,0.962911824 7.99653456,0.962911824 C11.9073425,0.962911824 15.0887127,4.33501804 15.0887127,8.48045491 L15.9930937,8.48045491 C15.9930937,7.33835671 15.7807189,6.22746894 15.363957,5.18121643 Z" id="路径"></path>
                    <polygon id="路径" points="1.96227343 12.9739479 13.9934624 12.9739479 13.9934624 12.0152044 1.96227343 12.0152044"></polygon>
                    <path d="M7.64433837,10.7050567 L9.38218171,10.7175573 L9.37035998,8.88372548 L4.85445972,5.94184485 L7.64433837,10.7050567 Z M8.46986445,9.75486249 L8.1526727,9.75283538 L7.64433837,8.88372548 L8.46794342,9.42015564 L8.46986445,9.75486249 Z" id="Fill-3"></path>
                </g>
                <circle id="椭圆形" cx="2.38235294" cy="8.5" r="1"></circle>
                <circle id="椭圆形" cx="13.6764706" cy="8.5" r="1"></circle>
                <circle id="椭圆形" cx="12.7352941" cy="4.5" r="1"></circle>
                <circle id="椭圆形" cx="3.32352941" cy="4.5" r="1"></circle>
                <circle id="椭圆形" cx="8.02941176" cy="2.5" r="1"></circle>
            </g>
        </g>
    </g>
</svg>