<?xml version="1.0" encoding="UTF-8"?>
<svg width="14px" height="13px" viewBox="0 0 14 13" version="1.1" xmlns="http://www.w3.org/2000/svg" xmlns:xlink="http://www.w3.org/1999/xlink">
    <!-- Generator: Sketch 52.5 (67469) - http://www.bohemiancoding.com/sketch -->
    <title>画板</title>
    <desc>Created with Sketch.</desc>
    <g id="菜单" stroke="none" stroke-width="1" fill="none" fill-rule="evenodd" opacity="0.65">
        <g id="菜单图标切图" transform="translate(-380.000000, -50.000000)" fill="#FFFFFF">
            <g id="yonghuzhongxin" transform="translate(380.000000, 50.000000)">
                <g id="分组">
                    <path d="M13.6312486,6.41217169 C13.4550363,6.41217169 13.278824,6.59763705 13.278824,6.78408133 L13.278824,12.0727515 C13.278824,12.1659834 13.1906788,12.1659834 13.1906788,12.1659834 L8.09100279,12.1659834 C7.82672346,12.1659834 7.47531564,11.8883042 7.47531564,11.5164533 C7.47531564,11.1455422 7.73965363,10.8678434 7.91486872,10.8678434 L12.4879218,10.8678434 C12.6631369,10.8678434 12.8393492,10.6813991 12.8393492,10.4970105 L12.8393492,5.6703494 C12.8393492,5.48396386 12.6631369,5.29851807 12.4879218,5.29851807 L8.44243017,5.29851807 C7.65053073,5.29851807 6.94675698,5.85579518 6.7715419,6.69086898 L6.68347486,6.69086898 C6.37338268,6.8050497 6.0467095,6.86768072 5.71637989,6.87625602 C4.39439665,6.87723494 3.25451117,5.94589458 2.99032961,4.64890964 C2.90226257,4.37023193 2.90226257,4.18484488 2.90226257,3.90614759 C2.90226257,3.72070181 2.90226257,3.44200452 2.99032961,3.1643253 C3.34173743,1.95742018 4.48498603,0.936978916 5.80450559,0.936978916 C6.94775419,0.936978916 8.09100279,1.77203313 8.44340782,3.07109337 L8.44340782,3.1643253 L9.32237709,3.1643253 L9.32237709,2.97793976 C9.14618436,2.3283509 8.7958324,1.67882078 8.35534078,1.21467771 C7.72049162,0.460599398 6.78935475,0.0204789157 5.80450559,0.00877108434 L5.71637989,0.00877108434 C4.74934358,0.00877108434 3.86929888,0.472914157 3.16554469,1.12244428 C2.46276816,1.86526506 2.0232933,2.88570633 2.0232933,3.90614759 C2.0232933,4.92758735 2.37462291,5.94802861 3.07845531,6.68979217 C3.2546676,6.87625602 3.43080168,6.96749096 3.60601676,7.15393524 C3.69416201,7.24716717 3.69416201,7.24716717 3.78222905,7.24716717 C3.07747765,7.52584488 2.46276816,7.8967756 1.93514804,8.4530738 L1.67086872,8.73075301 C1.29891061,9.12476657 0.974290503,9.56114759 0.70375419,10.0308705 C0.615687151,10.1231039 0.615687151,10.2163358 0.527541899,10.4017229 C0.26427933,10.9590979 0.0880670391,11.6076295 0,12.3494518 C0,12.6281491 0.176212291,12.9067485 0.439494413,12.9067485 L0.615687151,12.9067485 C0.791899441,12.9067485 0.968111732,12.7213614 0.968111732,12.4426837 C1.15247765,11.2961973 1.6727067,10.2304127 2.46276816,9.38028313 C3.42980447,8.36084036 4.66119832,7.80454217 5.97964246,7.80454217 C6.244,7.80454217 6.59534916,7.80454217 6.85863128,7.8967756 L6.85863128,11.7940738 C6.85863128,12.5359157 7.3862514,12.9999804 7.9137933,12.9999804 L13.1026117,12.9999804 C13.6302514,12.9999804 13.9825782,12.5359157 13.9825782,12.0717726 L13.9825782,6.87625602 C13.9825782,6.59763705 13.8074413,6.41217169 13.6312486,6.41217169 Z M7.47431844,7.15393524 C7.47431844,6.59663855 7.9137933,6.13249548 8.44243017,6.13249548 L12.1355168,6.13249548 L12.1355168,10.0308705 L7.91486872,10.0308705 C7.73865642,10.0308705 7.56246369,10.0308705 7.47531564,10.1231039 L7.47531564,7.15393524 L7.47431844,7.15393524 Z" id="Fill-1"></path>
                </g>
            </g>
        </g>
    </g>
</svg>