<?xml version="1.0" encoding="UTF-8"?>
<svg width="49px" height="16px" viewBox="0 0 49 16" version="1.1" xmlns="http://www.w3.org/2000/svg" xmlns:xlink="http://www.w3.org/1999/xlink">
    <!-- Generator: Sketch 52.5 (67469) - http://www.bohemiancoding.com/sketch -->
    <title>分组 18</title>
    <desc>Created with Sketch.</desc>
    <defs>
        <polygon id="path-1" points="0.00134078212 0.021452514 15.9785251 0.021452514 15.9785251 15.9999777 0.00134078212 15.9999777"></polygon>
    </defs>
    <g id="Page-1" stroke="none" stroke-width="1" fill="none" fill-rule="evenodd">
        <g id="导出" transform="translate(-1073.000000, -191.000000)">
            <g id="分组-42" transform="translate(525.000000, 104.000000)">
                <g id="分组-41" transform="translate(294.000000, 80.000000)">
                    <g id="置底" transform="translate(242.000000, 0.000000)">
                        <g id="分组-18" transform="translate(12.000000, 5.000000)">
                            <g id="icon_zhiding" transform="translate(0.000000, 2.000000)">
                                <g id="分组">
                                    <mask id="mask-2" fill="white">
                                        <use xlink:href="#path-1"></use>
                                    </mask>
                                    <g id="Clip-2"></g>
                                    <path d="M7.98927374,0.021452514 C3.57716201,0.021452514 0,3.59861453 0,8.01072626 C0,12.4228156 3.57716201,15.9999777 7.98927374,15.9999777 C12.4013631,15.9999777 15.9785251,12.4228156 15.9785251,8.01072626 C15.9785251,3.59861453 12.4013631,0.021452514 7.98927374,0.021452514 Z M7.98927374,15.0149944 C4.12779888,15.0149944 0.98498324,11.8721788 0.98498324,8.01072626 C0.98498324,4.1492514 4.12779888,1.00643575 7.98927374,1.00643575 C11.8524693,1.00643575 14.9935419,4.1492514 14.9935419,8.01072626 C14.9935419,11.8739218 11.8507263,15.0149944 7.98927374,15.0149944 Z" id="Fill-1" fill="#FFFFFF" mask="url(#mask-2)"></path>
                                </g>
                                <path d="M11.1618664,2.74747475 L4.8399022,2.74747475 C4.57763463,2.74747475 4.36363636,2.97820898 4.36363636,3.26098747 C4.36363636,3.54378922 4.57763463,3.77443043 4.8399022,3.77443043 L11.1601841,3.77443043 C11.4224516,3.77443043 11.6363636,3.54378922 11.6363636,3.26098747 C11.6363636,2.97820898 11.4224516,2.74747475 11.1618664,2.74747475 Z M8.28557186,4.50739879 C8.21142088,4.42747201 8.11824687,4.3790555 8.02160041,4.36424218 L8.01983183,4.36424218 C8.01293005,4.36233529 8.00611454,4.36233529 8.00089507,4.36233529 L7.99574031,4.36233529 C7.99052084,4.36233529 7.98361906,4.36052141 7.9784643,4.36052141 L7.91639143,4.36052141 C7.91115039,4.36052141 7.90424861,4.36052141 7.89911541,4.36233529 L7.89389594,4.36233529 C7.8869726,4.36233529 7.88015709,4.36424218 7.87493762,4.36424218 L7.87325531,4.36424218 C7.77660885,4.38096239 7.68343484,4.42747201 7.60919759,4.50739879 L4.73803627,7.60682317 C4.55345683,7.80595411 4.55345683,8.13152146 4.73803627,8.33237325 C4.92272354,8.53148094 5.22467634,8.53148094 5.41102435,8.33237325 L7.47288747,6.10925989 L7.47288747,11.6885075 C7.47288747,11.971286 7.68688573,12.2020202 7.94915331,12.2020202 C8.21142088,12.2020202 8.42533287,11.971286 8.42533287,11.6885075 L8.42533287,6.107353 L10.4872823,8.33053612 C10.6718617,8.52957404 10.9738145,8.52957404 11.1601841,8.33053612 C11.3447851,8.13152146 11.3447851,7.80595411 11.1601841,7.60500929 L8.28557186,4.50739879 Z" id="Fill-3" fill="#FFFFFF" transform="translate(8.000000, 7.474747) scale(1, -1) translate(-8.000000, -7.474747) "></path>
                            </g>
                            <text id="置底" font-family="PingFangSC-Regular, PingFang SC" font-size="14" font-weight="normal" fill="#FFFFFF">
                                <tspan x="21" y="15">置底</tspan>
                            </text>
                        </g>
                    </g>
                </g>
            </g>
        </g>
    </g>
</svg>