<?xml version="1.0" encoding="UTF-8"?>
<svg width="16px" height="16px" viewBox="0 0 16 16" version="1.1" xmlns="http://www.w3.org/2000/svg" xmlns:xlink="http://www.w3.org/1999/xlink">
    <!-- Generator: Sketch 52.5 (67469) - http://www.bohemiancoding.com/sketch -->
    <title>切图</title>
    <desc>Created with Sketch.</desc>
    <g id="Page-1" stroke="none" stroke-width="1" fill="none" fill-rule="evenodd">
        <g id="切图" transform="translate(-32.000000, -17.000000)" fill="#FFFFFF">
            <g id="分组-14" transform="translate(32.000000, 17.000000)">
                <path d="M11.1618664,3.63636364 L4.8399022,3.63636364 C4.57763463,3.63636364 4.36363636,3.86709786 4.36363636,4.14987636 C4.36363636,4.43267811 4.57763463,4.66331932 4.8399022,4.66331932 L11.1601841,4.66331932 C11.4224516,4.66331932 11.6363636,4.43267811 11.6363636,4.14987636 C11.6363636,3.86709786 11.4224516,3.63636364 11.1618664,3.63636364 Z M8.28557186,5.39628768 C8.21142088,5.3163609 8.11824687,5.26794438 8.02160041,5.25313107 L8.01983183,5.25313107 C8.01293005,5.25122418 8.00611454,5.25122418 8.00089507,5.25122418 L7.99574031,5.25122418 C7.99052084,5.25122418 7.98361906,5.2494103 7.9784643,5.2494103 L7.91639143,5.2494103 C7.91115039,5.2494103 7.90424861,5.2494103 7.89911541,5.25122418 L7.89389594,5.25122418 C7.8869726,5.25122418 7.88015709,5.25313107 7.87493762,5.25313107 L7.87325531,5.25313107 C7.77660885,5.26985128 7.68343484,5.3163609 7.60919759,5.39628768 L4.73803627,8.49571206 C4.55345683,8.694843 4.55345683,9.02041034 4.73803627,9.22126214 C4.92272354,9.42036983 5.22467634,9.42036983 5.41102435,9.22126214 L7.47288747,6.99814878 L7.47288747,12.5773964 C7.47288747,12.8601749 7.68688573,13.0909091 7.94915331,13.0909091 C8.21142088,13.0909091 8.42533287,12.8601749 8.42533287,12.5773964 L8.42533287,6.99624189 L10.4872823,9.21942501 C10.6718617,9.41846293 10.9738145,9.41846293 11.1601841,9.21942501 C11.3447851,9.02041034 11.3447851,8.694843 11.1601841,8.49389818 L8.28557186,5.39628768 Z" id="Fill-3"></path>
                <path d="M7.98927374,0.021452514 C3.57716201,0.021452514 1.99840144e-13,3.59861453 1.99840144e-13,8.01072626 C1.99840144e-13,12.4228156 3.57716201,15.9999777 7.98927374,15.9999777 C12.4013631,15.9999777 15.9785251,12.4228156 15.9785251,8.01072626 C15.9785251,3.59861453 12.4013631,0.021452514 7.98927374,0.021452514 Z M7.98927374,15.0149944 C4.12779888,15.0149944 0.98498324,11.8721788 0.98498324,8.01072626 C0.98498324,4.1492514 4.12779888,1.00643575 7.98927374,1.00643575 C11.8524693,1.00643575 14.9935419,4.1492514 14.9935419,8.01072626 C14.9935419,11.8739218 11.8507263,15.0149944 7.98927374,15.0149944 Z" id="Fill-1"></path>
            </g>
        </g>
    </g>
</svg>