<?xml version="1.0" encoding="UTF-8"?>
<svg width="14px" height="14px" viewBox="0 0 14 14" version="1.1" xmlns="http://www.w3.org/2000/svg" xmlns:xlink="http://www.w3.org/1999/xlink">
    <!-- Generator: Sketch 52.5 (67469) - http://www.bohemiancoding.com/sketch -->
    <title>画板</title>
    <desc>Created with Sketch.</desc>
    <g id="菜单" stroke="none" stroke-width="1" fill="none" fill-rule="evenodd" opacity="0.65">
        <g id="菜单图标切图" transform="translate(-224.000000, -50.000000)" fill="#FFFFFF" stroke="#2F4156" stroke-width="0.3">
            <path d="M230,56 L226.142869,56 C224.942862,56 224,55.0571376 224,53.8571309 L224,52.1428691 C224,50.9428624 224.942862,50 226.142869,50 L227.857131,50 C229.057138,50 230,50.9428624 230,52.1428691 L230,56 Z M226.200016,51 C225.56,51 225,51.56 225,52.2000156 L225,53.7999844 C225,54.44 225.56,55 226.200016,55 L229,55 L229,52.2000156 C229,51.56 228.44,51 227.799984,51 L226.200016,51 Z M227.857131,64 L226.142869,64 C224.942862,64 224,63.0571376 224,61.8571309 L224,60.1428691 C224,58.9428624 224.942862,58 226.142869,58 L230,58 L230,61.8571309 C230,63.0571376 229.057138,64 227.857131,64 Z M226.200016,59 C225.56,59 225,59.56 225,60.2000156 L225,61.7999844 C225,62.44 225.56,63 226.200016,63 L227.799984,63 C228.44,63 229,62.44 229,61.7999844 L229,59 L226.200016,59 Z M235.857131,56 L232,56 L232,52.1428691 C232,50.9428624 232.942862,50 234.142869,50 L235.857131,50 C237.057138,50 238,50.9428624 238,52.1428691 L238,53.8571309 C238,55.0571376 237.057138,56 235.857131,56 Z M233,55 L235.799984,55 C236.44,55 237,54.44 237,53.7999844 L237,52.2000156 C237,51.56 236.44,51 235.799984,51 L234.200016,51 C233.56,51 233,51.56 233,52.2000156 L233,55 Z M235.857131,64 L234.142869,64 C232.942862,64 232,63.0571376 232,61.8571309 L232,58 L235.857131,58 C237.057138,58 238,58.9428624 238,60.1428691 L238,61.8571309 C238,63.0571376 237.057138,64 235.857131,64 Z M233,59 L233,61.7999844 C233,62.44 233.56,63 234.200016,63 L235.799984,63 C236.44,63 237,62.44 237,61.7999844 L237,60.2000156 C237,59.56 236.44,59 235.799984,59 L233,59 Z" id="Fill-1"></path>
        </g>
    </g>
</svg>